<svg width="138" height="144" viewBox="0 0 138 144" fill="none" xmlns="http://www.w3.org/2000/svg">
<path d="M126.542 111.467C126.446 110.893 126.038 110.244 125.318 109.524C124.598 108.806 123.565 108.014 122.223 107.149C120.877 106.288 120.208 105.808 120.208 105.711C115.313 102.065 112.193 99.81 110.851 98.944C110.179 98.562 109.002 98.034 107.325 97.362C105.645 96.692 104.709 96.307 104.518 96.21C104.037 96.021 103.006 95.66 101.423 95.131C99.839 94.606 98.471 94.077 97.32 93.548C96.169 93.023 95.4 92.47 95.016 91.892C93.289 89.399 91.079 84.937 88.395 78.504C87.819 76.973 86.787 74.571 85.299 71.308C83.811 68.047 82.731 65.599 82.062 63.967C81.773 63.298 81.389 62.192 80.91 60.657C80.429 59.123 79.949 57.923 79.471 57.057C72.466 42.663 62.821 31.289 50.538 22.941C45.835 19.775 41.373 17.523 37.151 16.175C36.19 15.793 34.654 15.555 32.545 15.457C30.433 15.361 28.898 15.218 27.938 15.025H26.068C25.396 14.735 24.531 14.115 23.477 13.152C22.419 12.196 21.796 11.667 21.605 11.569C19.303 9.842 16.28 8.165 12.537 6.53C9.46404 5.188 7.49904 4.901 6.63604 5.669C5.96404 5.861 5.53204 6.292 5.34104 6.964C4.86004 7.826 5.00304 9.22 5.77204 11.139C6.15604 12.098 6.63704 12.988 7.21104 13.8C7.78704 14.616 8.43504 15.527 9.15404 16.535C9.87304 17.543 10.425 18.289 10.81 18.765C13.304 22.509 14.887 25.1 15.56 26.539C16.326 28.458 17.287 31.386 18.439 35.319C19.589 39.255 20.501 42.085 21.174 43.811C22.228 46.212 23.381 48.371 24.629 50.29C24.722 50.388 25.251 50.962 26.212 52.017C27.17 53.074 27.746 53.985 27.939 54.751C28.323 55.042 28.419 55.809 28.228 57.056C28.034 58.303 27.818 59.335 27.58 60.152C27.338 60.967 26.979 62.001 26.499 63.245C26.018 64.494 25.73 65.262 25.636 65.549C24.484 69.678 24.003 74.237 24.197 79.224C24.388 84.215 25.155 88.533 26.499 92.178C26.594 92.276 26.716 92.539 26.86 92.97C27.004 93.404 27.098 93.691 27.147 93.834C27.194 93.978 27.314 94.266 27.508 94.699C27.699 95.13 27.842 95.417 27.939 95.56C28.034 95.704 28.177 95.946 28.372 96.282C28.563 96.618 28.732 96.856 28.876 97C29.02 97.144 29.211 97.361 29.452 97.648C29.69 97.938 29.906 98.13 30.1 98.225C30.291 98.32 30.506 98.439 30.746 98.582C30.986 98.728 31.297 98.848 31.683 98.942C31.683 98.847 31.778 98.753 31.97 98.655C32.065 98.081 32.208 96.809 32.403 94.842C32.594 92.877 32.762 91.459 32.907 90.594C33.051 89.733 33.266 88.629 33.555 87.284C33.842 85.94 34.177 84.742 34.562 83.684C34.944 82.63 35.714 81.334 36.865 79.797C38.017 78.263 38.737 77.303 39.024 76.918C39.313 77.113 39.551 77.4 39.743 77.783C39.936 78.168 40.079 78.647 40.176 79.221C40.271 79.796 40.367 80.23 40.465 80.517C42.479 85.41 43.821 88.579 44.494 90.018C47.949 97.022 51.404 103.116 54.858 108.298C56.201 110.122 57.831 112.091 59.752 114.199C59.944 114.297 60.304 114.559 60.832 114.99C61.358 115.425 61.718 115.831 61.913 116.216H62.057V116.503C60.999 116.021 59.681 114.969 58.098 113.337C56.515 111.705 55.578 110.795 55.291 110.603C49.916 106.19 45.885 101.676 43.199 97.071C42.143 94.865 40.896 92.13 39.457 88.866V88.722C39.263 88.914 39.144 89.154 39.098 89.441C39.048 89.731 39 90.067 38.953 90.449C38.904 90.835 38.881 91.171 38.881 91.458C38.594 92.319 38.328 93.881 38.09 96.137C37.85 98.392 37.489 100.118 37.011 101.317C36.53 102.518 35.665 103.404 34.42 103.982C31.06 105.42 27.798 103.456 24.632 98.081C22.232 93.857 20.768 88.629 20.241 82.389C19.712 76.153 20.264 70.205 21.897 64.539C21.897 64.35 22.112 63.244 22.545 61.229C22.976 59.215 23.48 57.825 24.056 57.055C23.96 56.576 23.767 56.144 23.48 55.759C23.192 55.377 22.855 54.992 22.473 54.607C22.088 54.225 21.799 53.889 21.608 53.599C20.649 52.257 19.544 50.244 18.297 47.554C17.723 46.402 16.089 41.895 13.403 34.023C13.211 33.546 12.972 32.727 12.683 31.578C12.396 30.427 12.155 29.516 11.964 28.844C11.483 27.786 9.90004 25.293 7.21404 21.357C7.02204 20.975 6.56804 20.328 5.84804 19.414C5.12704 18.503 4.55304 17.736 4.12004 17.113C3.68804 16.489 3.15904 15.6 2.53704 14.448C1.91204 13.296 1.50404 12.315 1.31304 11.499C1.11904 10.684 0.928039 9.65 0.737039 8.403C0.545039 7.156 0.737039 6.099 1.31304 5.237C2.08004 3.22 3.23204 1.805 4.76804 0.989999C6.30204 0.176999 7.88504 -0.138001 9.51804 0.0539986C11.148 0.245999 12.973 0.726998 14.988 1.493C17.004 2.264 18.706 3.03 20.098 3.797C21.488 4.565 22.856 5.429 24.201 6.386C24.488 6.581 25.136 7.131 26.144 8.042C27.151 8.956 27.894 9.506 28.375 9.698C31.444 9.89 33.796 10.034 35.428 10.129C41.378 11.666 45.311 13.057 47.232 14.304C55.484 19.392 62.369 24.788 67.888 30.497C73.406 36.208 78.563 43.236 83.364 51.586C83.938 52.643 84.466 53.795 84.947 55.042C85.425 56.288 85.954 57.703 86.53 59.286C87.105 60.869 87.584 62.095 87.968 62.956C90.56 69.386 93.101 75.146 95.598 80.231C95.886 80.805 96.269 81.67 96.749 82.823C97.228 83.971 97.66 84.959 98.045 85.771C98.427 86.587 98.908 87.333 99.484 88.002C99.675 88.387 100.298 88.772 101.356 89.154C102.41 89.539 102.986 89.78 103.083 89.875C103.659 90.162 105.121 90.859 107.473 91.962C109.825 93.066 111.576 94.05 112.728 94.911C117.427 98.08 122.516 102.16 127.986 107.146C128.657 107.724 129.497 108.729 130.506 110.168C131.513 111.607 132.256 112.57 132.736 113.047V113.912C132.256 114.104 130.768 114.584 128.273 115.35C127.123 115.638 125.538 115.901 123.524 116.142C121.509 116.38 119.972 116.646 118.918 116.933C115.654 117.893 113.543 118.421 112.585 118.516L112.729 118.807C113.111 119.861 113.928 120.915 115.175 121.973C116.421 123.027 117.983 124.13 119.853 125.283C121.725 126.434 122.899 127.202 123.38 127.587C127.315 130.658 130.578 134.014 133.168 137.662L135.902 140.541C136.094 140.831 136.335 141.356 136.622 142.124C136.911 142.891 137.149 143.42 137.344 143.71V144C136.863 143.808 136.286 143.374 135.615 142.704C134.943 142.032 134.511 141.647 134.319 141.553C130.673 138.576 128.657 136.948 128.273 136.657C127.025 135.89 125.13 134.882 122.587 133.636C120.043 132.389 118.197 131.38 117.045 130.614C115.895 129.843 113.927 128.309 111.145 126.009C109.416 124.664 107.784 122.602 106.25 119.818C106.056 119.626 105.817 119.146 105.53 118.379C105.242 117.612 104.954 117.034 104.666 116.652C104.761 116.078 105.002 115.644 105.386 115.356C105.769 115.069 106.344 114.831 107.114 114.638C107.882 114.446 108.359 114.302 108.553 114.204C113.058 112.188 119.057 111.277 126.542 111.467ZM28.371 26.109C28.562 26.301 28.97 26.637 29.595 27.115C30.219 27.597 30.674 28.028 30.963 28.41C31.058 28.606 31.201 28.939 31.394 29.419C31.587 29.901 31.778 30.235 31.97 30.428C31.97 32.729 31.345 34.364 30.1 35.321C30.1 35.419 30.05 35.516 29.955 35.608C29.474 34.651 28.754 33.068 27.796 30.859C27.604 30.572 27.148 29.972 26.428 29.059C25.708 28.148 25.204 27.406 24.917 26.828H24.63V26.54C25.971 26.253 27.219 26.109 28.371 26.109Z" fill="black"/>
</svg>
